<svg width="962" height="664" viewBox="0 0 962 664" fill="none" xmlns="http://www.w3.org/2000/svg">
<g clip-path="url(#clip0_1_2)">
<mask id="mask0_1_2" style="mask-type:alpha" maskUnits="userSpaceOnUse" x="221" y="249" width="380" height="380">
<circle cx="411" cy="439" r="190" fill="#D9D9D9"/>
</mask>
<g mask="url(#mask0_1_2)">
<circle cx="411" cy="439" r="190" fill="#FFA51D"/>
<circle cx="396" cy="424" r="175" fill="#FFAE35"/>
<circle cx="388.5" cy="416.5" r="167.5" fill="#FFB84C"/>
<circle cx="411" cy="439" r="180" stroke="#101010" stroke-width="20"/>
</g>
<path d="M392.251 529.943C366.579 531.398 347.502 504.834 337.518 483.657C334.646 477.567 339.92 471.171 346.606 471.97C354.91 472.962 365.076 473.984 374.678 474.496C388.086 475.21 417.182 473.132 437.971 471.309C444.522 470.734 449.41 477.069 446.499 482.967C436.662 502.904 417.841 528.492 392.251 529.943Z" fill="#101010"/>
<path d="M405.21 518.969C391.98 526.933 381.352 522.356 375.615 517.238C373.55 515.396 373.703 512.256 375.698 510.34C390.021 496.58 409.846 493.387 422.622 493.632C426.34 493.703 428.435 497.364 426.283 500.398C422.628 505.551 415.991 512.48 405.21 518.969Z" fill="#FF9292"/>
<ellipse cx="278" cy="459" rx="30" ry="20" fill="#FF9292" fill-opacity="0.6"/>
<ellipse cx="506" cy="459" rx="30" ry="20" fill="#FF9292" fill-opacity="0.6"/>
<ellipse cx="323.5" cy="389" rx="32.5" ry="40" fill="#101010"/>
<circle cx="323" cy="377" r="20" fill="white"/>
<ellipse cx="461.5" cy="389" rx="32.5" ry="40" fill="#101010"/>
<circle cx="461" cy="377" r="20" fill="white"/>
<mask id="mask1_1_2" style="mask-type:alpha" maskUnits="userSpaceOnUse" x="303" y="181" width="308" height="168">
<path d="M344.261 194.476L344.426 194.411L344.585 194.334C356.596 188.572 377.152 185.596 402.15 186.403C426.966 187.204 455.517 191.711 483.128 200.356C514.809 210.274 543.564 219.426 565.448 230.458C587.466 241.558 601.145 253.889 604.755 269.427C606.199 275.644 605.724 284.188 603.608 293.636C601.513 302.988 597.915 312.765 593.562 321.241C589.165 329.803 584.209 336.626 579.601 340.436C577.306 342.334 575.4 343.232 573.954 343.489C572.693 343.713 571.587 343.503 570.389 342.613C501.88 291.737 440.239 279.199 393.647 276.27C378.11 275.293 364.008 275.386 352.16 275.465C346.465 275.502 341.291 275.537 336.729 275.447C329.513 275.305 323.883 274.864 319.649 273.819C315.435 272.778 313.302 271.308 312.185 269.645C309.01 264.917 307.948 258.531 308.853 250.934C309.756 243.361 312.57 235.051 316.538 227.051C320.497 219.07 325.501 211.608 330.591 205.743C335.788 199.753 340.67 195.896 344.261 194.476Z" fill="white" stroke="#101010" stroke-width="10"/>
</mask>
<g mask="url(#mask1_1_2)">
<ellipse cx="484.635" cy="256.431" rx="169.113" ry="156.946" transform="rotate(21.8365 484.635 256.431)" fill="#D3D8FF"/>
<ellipse cx="461.309" cy="152.073" rx="162.891" ry="169.657" transform="rotate(21.8365 461.309 152.073)" fill="#E2E5FF"/>
<ellipse cx="401.309" cy="126.073" rx="162.891" ry="169.657" transform="rotate(21.8365 401.309 126.073)" fill="#F0F2FF"/>
<ellipse cx="298.69" cy="124.266" rx="178.163" ry="170.21" transform="rotate(21.8365 298.69 124.266)" fill="white"/>
<path d="M346.1 199.125L346.429 198.995L346.747 198.842C357.669 193.603 377.256 190.602 401.988 191.401C426.358 192.187 454.46 196.62 481.635 205.127C513.425 215.08 541.752 224.112 563.197 234.923C584.909 245.869 596.803 257.294 599.885 270.559C601.086 275.73 600.77 283.43 598.729 292.543C596.73 301.465 593.282 310.843 589.114 318.957C584.859 327.244 580.277 333.39 576.415 336.583C574.785 337.93 573.726 338.383 573.264 338.52C503.857 287.011 441.266 274.254 393.96 271.279C378.267 270.293 363.769 270.387 351.834 270.464C346.217 270.501 341.168 270.533 336.828 270.448C329.667 270.307 324.508 269.869 320.848 268.965C317.227 268.07 316.474 267.063 316.336 266.858C314.057 263.465 312.996 258.421 313.818 251.526C314.634 244.68 317.22 236.928 321.017 229.272C324.795 221.657 329.567 214.552 334.367 209.019C339.383 203.239 343.626 200.104 346.1 199.125Z" stroke="#101010" stroke-width="20"/>
</g>
<mask id="mask2_1_2" style="mask-type:alpha" maskUnits="userSpaceOnUse" x="278" y="13" width="435" height="274">
<path fill-rule="evenodd" clip-rule="evenodd" d="M542.63 227.13C528.102 232.49 512.19 234.979 495.665 233.933C463.204 231.879 434.805 216.591 415.637 193.8C399.981 204.577 380.585 210.393 359.955 209.087C311.899 206.047 275.35 165.517 278.321 118.563C281.293 71.6087 322.658 36.0098 370.714 39.0506C387.294 40.0997 402.504 45.6111 415.194 54.3091C437.36 27.7845 471.873 11.7726 509.572 14.1581C566.551 17.7635 611.013 62.143 615.01 116.304C620.195 115.709 625.509 115.563 630.908 115.905C678.964 118.945 715.512 159.475 712.541 206.429C709.57 253.383 668.205 288.982 620.148 285.941C583.415 283.617 553.406 259.389 542.63 227.13Z" fill="#D9D9D9"/>
</mask>
<g mask="url(#mask2_1_2)">
<ellipse cx="574.712" cy="154.498" rx="169.113" ry="156.946" transform="rotate(3.62066 574.712 154.498)" fill="#D3D8FF"/>
<ellipse cx="493.643" cy="101.194" rx="162.891" ry="169.657" transform="rotate(3.62066 493.643 101.194)" fill="#E2E5FF"/>
<ellipse cx="421.367" cy="61.1814" rx="162.891" ry="169.657" transform="rotate(3.62066 421.367 61.1814)" fill="#F0F2FF"/>
<ellipse cx="317.395" cy="47.4038" rx="178.163" ry="170.21" transform="rotate(3.62066 317.395 47.4038)" fill="white"/>
<mask id="path-25-inside-1_1_2" fill="white">
<path fill-rule="evenodd" clip-rule="evenodd" d="M542.63 227.131C528.102 232.49 512.19 234.979 495.665 233.933C463.204 231.879 434.805 216.591 415.637 193.8C399.981 204.578 380.585 210.393 359.955 209.087C311.899 206.047 275.35 165.517 278.321 118.563C281.293 71.6087 322.658 36.0098 370.714 39.0506C387.294 40.0997 402.504 45.6111 415.194 54.3091C437.36 27.7845 471.873 11.7726 509.572 14.1581C566.551 17.7635 611.013 62.143 615.01 116.304C620.195 115.709 625.509 115.563 630.908 115.905C678.964 118.945 715.512 159.475 712.541 206.429C709.57 253.383 668.204 288.982 620.148 285.941C583.415 283.617 553.406 259.389 542.63 227.131Z"/>
</mask>
<path d="M542.63 227.131L561.6 220.794L555.064 201.226L535.708 208.367L542.63 227.131ZM415.637 193.8L430.943 180.927L419.254 167.029L404.296 177.326L415.637 193.8ZM415.194 54.3091L403.887 70.8059L418.883 81.0845L430.541 67.134L415.194 54.3091ZM615.01 116.304L595.065 117.776L596.598 138.548L617.291 136.174L615.01 116.304ZM535.708 208.367C523.753 212.777 510.627 214.84 496.928 213.973L494.402 253.894C513.752 255.118 532.45 252.204 549.552 245.894L535.708 208.367ZM496.928 213.973C470.068 212.274 446.692 199.652 430.943 180.927L400.331 206.673C422.919 233.531 456.34 251.485 494.402 253.894L496.928 213.973ZM358.692 229.047C383.911 230.643 407.727 223.526 426.977 210.274L404.296 177.326C392.235 185.629 377.258 190.142 361.218 189.127L358.692 229.047ZM258.361 117.3C254.665 175.712 300.051 225.337 358.692 229.047L361.218 189.127C323.747 186.756 296.035 155.323 298.282 119.826L258.361 117.3ZM371.977 19.0906C313.337 15.38 262.057 58.8882 258.361 117.3L298.282 119.826C300.528 84.3293 331.98 56.6396 369.451 59.0107L371.977 19.0906ZM426.501 37.8123C410.902 27.1198 392.234 20.3723 371.977 19.0906L369.451 59.0107C382.354 59.8272 394.107 64.1024 403.887 70.8059L426.501 37.8123ZM430.541 67.134C448.722 45.3774 477.121 32.1447 508.309 34.1182L510.835 -5.802C466.625 -8.59944 425.998 10.1916 399.847 41.4842L430.541 67.134ZM508.309 34.1182C555.534 37.1064 591.819 73.7954 595.065 117.776L634.956 114.832C630.207 50.4907 577.567 -1.57941 510.835 -5.802L508.309 34.1182ZM632.171 95.9445C625.586 95.5279 619.086 95.705 612.73 96.4344L617.291 136.174C621.304 135.713 625.432 135.598 629.645 135.865L632.171 95.9445ZM732.501 207.692C736.198 149.28 690.812 99.6551 632.171 95.9445L629.645 135.865C667.116 138.236 694.827 169.669 692.581 205.166L732.501 207.692ZM618.885 305.901C677.526 309.612 728.805 266.104 732.501 207.692L692.581 205.166C690.335 240.663 658.883 268.352 621.411 265.981L618.885 305.901ZM523.66 233.467C536.997 273.393 573.97 303.059 618.885 305.901L621.411 265.981C592.86 264.175 569.814 245.385 561.6 220.794L523.66 233.467Z" fill="#101010" mask="url(#path-25-inside-1_1_2)"/>
</g>
<mask id="path-27-outside-2_1_2" maskUnits="userSpaceOnUse" x="528.25" y="132.543" width="449.273" height="532.539" fill="black">
<rect fill="white" x="528.25" y="132.543" width="449.273" height="532.539"/>
<path fill-rule="evenodd" clip-rule="evenodd" d="M746.992 360.416C685.625 301.441 756.729 202.567 801.103 159.566C804.756 156.026 821.07 170.412 818.274 173.787C806.878 187.547 756.564 248.301 779.326 267.152C801.29 285.342 848.379 228.483 863 210.828C865.796 207.453 883.367 222.004 880.571 225.38C865.305 243.813 818.861 299.894 842.023 319.075C859.194 333.296 903.673 286.093 924.099 261.428C926.895 258.053 943.587 271.002 940.872 275.319C907.142 328.937 822.89 421.363 753.617 366.208C683.156 442.18 605.287 596.594 585.595 639.032C583.889 642.709 579.846 644.607 575.92 643.599C570.792 642.283 568.187 636.579 570.587 631.86C611.702 551.018 677.501 428.843 746.992 360.416Z"/>
</mask>
<path fill-rule="evenodd" clip-rule="evenodd" d="M746.992 360.416C685.625 301.441 756.729 202.567 801.103 159.566C804.756 156.026 821.07 170.412 818.274 173.787C806.878 187.547 756.564 248.301 779.326 267.152C801.29 285.342 848.379 228.483 863 210.828C865.796 207.453 883.367 222.004 880.571 225.38C865.305 243.813 818.861 299.894 842.023 319.075C859.194 333.296 903.673 286.093 924.099 261.428C926.895 258.053 943.587 271.002 940.872 275.319C907.142 328.937 822.89 421.363 753.617 366.208C683.156 442.18 605.287 596.594 585.595 639.032C583.889 642.709 579.846 644.607 575.92 643.599C570.792 642.283 568.187 636.579 570.587 631.86C611.702 551.018 677.501 428.843 746.992 360.416Z" fill="#F0F2FF"/>
<path d="M746.992 360.416L761.025 374.666L775.674 360.241L760.85 345.995L746.992 360.416ZM801.103 159.566L815.021 173.928L815.021 173.928L801.103 159.566ZM818.274 173.787L802.871 161.03L802.871 161.03L818.274 173.787ZM779.326 267.152L792.083 251.749L779.326 267.152ZM863 210.828L878.404 223.584L878.404 223.584L863 210.828ZM880.571 225.38L895.975 238.136L895.975 238.136L880.571 225.38ZM842.023 319.075L854.779 303.672L842.023 319.075ZM924.099 261.428L939.503 274.185L939.503 274.185L924.099 261.428ZM940.872 275.319L923.943 264.669L923.943 264.669L940.872 275.319ZM753.617 366.208L766.074 350.561L751.565 339.009L738.953 352.607L753.617 366.208ZM585.595 639.032L567.453 630.613L567.453 630.613L585.595 639.032ZM575.92 643.599L570.947 662.971L570.947 662.971L575.92 643.599ZM570.587 631.86L552.76 622.793L552.76 622.793L570.587 631.86ZM760.85 345.995C738.95 324.949 738.534 295.975 752.849 261.71C767.111 227.57 794.018 194.281 815.021 173.928L787.185 145.203C763.813 167.851 732.981 205.5 715.94 246.291C698.951 286.957 693.666 336.907 733.134 374.836L760.85 345.995ZM815.021 173.928C809.89 178.901 803.963 179.156 801.461 178.962C799.022 178.774 797.558 178.079 797.484 178.045C797.182 177.909 797.874 178.229 799.116 179.289C800.343 180.338 800.837 181.025 800.707 180.833C800.631 180.72 800.422 180.4 800.163 179.885C799.921 179.4 799.489 178.457 799.141 177.126C798.563 174.919 797.332 167.719 802.871 161.03L833.678 186.544C839.916 179.011 838.786 170.624 837.837 166.997C836.838 163.18 835.044 160.206 833.861 158.454C831.345 154.725 828.056 151.404 825.098 148.877C822.154 146.362 818.257 143.538 813.956 141.594C811.882 140.657 808.567 139.393 804.547 139.082C800.465 138.766 793.229 139.346 787.185 145.203L815.021 173.928ZM802.871 161.03C797.229 167.842 780.784 187.645 768.684 208.537C762.73 218.818 756.921 230.87 754.587 242.664C752.277 254.34 752.614 270.998 766.57 282.556L792.083 251.749C794.657 253.881 792.748 255.875 793.826 250.428C794.881 245.099 798.095 237.568 803.298 228.584C813.514 210.946 827.923 193.492 833.678 186.544L802.871 161.03ZM766.57 282.556C780.121 293.778 796.019 291.422 806.946 287.114C817.82 282.827 828.251 275.131 837.006 267.554C854.79 252.161 871.209 232.273 878.404 223.584L847.597 198.071C840.171 207.038 825.735 224.407 810.828 237.31C803.237 243.88 796.864 248.092 792.274 249.902C787.738 251.69 789.514 249.621 792.083 251.749L766.57 282.556ZM878.404 223.584C872.488 230.728 864.624 230.46 862.491 230.226C861.129 230.077 860.151 229.791 859.678 229.636C859.167 229.469 858.86 229.326 858.782 229.29C858.752 229.276 859.692 229.789 861.126 230.976C862.559 232.163 863.238 232.991 863.219 232.964C863.168 232.895 862.971 232.619 862.712 232.149C862.472 231.713 862.008 230.805 861.608 229.495C860.98 227.443 859.252 219.766 865.168 212.623L895.975 238.136C902.59 230.149 900.924 221.279 899.86 217.799C898.708 214.031 896.794 211.124 895.578 209.451C892.962 205.851 889.598 202.62 886.639 200.169C883.68 197.718 879.878 195.015 875.854 193.116C873.983 192.233 870.771 190.895 866.854 190.465C863.237 190.068 854.212 190.084 847.597 198.071L878.404 223.584ZM865.168 212.623C857.668 221.679 841.114 241.595 829.492 262.076C823.763 272.172 818.286 284.003 816.385 295.737C814.427 307.821 815.931 323.435 829.266 334.479L854.779 303.672C856.533 305.125 855.157 306.535 855.87 302.134C856.64 297.382 859.386 290.444 864.281 281.818C873.907 264.855 888.208 247.514 895.975 238.136L865.168 212.623ZM829.266 334.479C842.27 345.249 857.692 341.752 866.761 338.06C876.479 334.103 886.141 327.243 894.6 320.235C911.813 305.974 928.955 286.921 939.503 274.185L908.696 248.672C898.817 260.6 883.507 277.481 869.081 289.433C861.72 295.531 855.767 299.348 851.677 301.013C846.938 302.942 850.361 300.013 854.779 303.672L829.266 334.479ZM939.503 274.185C934.131 280.672 927.064 280.982 924.637 280.849C922.103 280.71 920.561 280.018 920.518 280C920.196 279.864 920.861 280.146 922.039 281.091C923.227 282.044 923.593 282.592 923.357 282.253C923.279 282.141 922.339 280.823 921.716 278.478C921.073 276.059 920.305 270.452 923.943 264.669L957.801 285.968C962.118 279.106 961.422 272.15 960.375 268.21C959.348 264.343 957.527 261.333 956.222 259.452C953.533 255.576 950.061 252.289 947.065 249.887C944.06 247.477 940.197 244.885 936.044 243.136C934.086 242.311 930.803 241.127 926.831 240.909C922.967 240.697 914.767 241.341 908.696 248.672L939.503 274.185ZM923.943 264.669C907.932 290.121 880.209 324.164 849.382 344.978C834.054 355.327 819.158 361.588 805.443 362.907C792.372 364.163 779.285 361.08 766.074 350.561L741.159 381.854C762.585 398.914 786.007 404.96 809.271 402.723C831.89 400.549 853.154 390.694 871.765 378.129C908.814 353.114 940.082 314.134 957.801 285.968L923.943 264.669ZM603.737 647.45C613.356 626.721 637.479 578.031 667.902 525.171C698.499 472.009 734.663 416.056 768.281 379.808L738.953 352.607C702.11 392.332 664.109 451.572 633.233 505.219C602.184 559.169 577.527 608.905 567.453 630.613L603.737 647.45ZM570.947 662.971C584.142 666.359 597.943 659.937 603.737 647.45L567.453 630.613C569.835 625.481 575.55 622.856 580.892 624.228L570.947 662.971ZM552.76 622.793C544.51 639.016 553.525 658.499 570.947 662.971L580.893 624.228C588.059 626.067 591.864 634.142 588.414 640.926L552.76 622.793ZM732.959 346.165C660.771 417.249 593.629 542.434 552.76 622.793L588.414 640.926C629.774 559.601 694.231 440.438 761.025 374.666L732.959 346.165Z" fill="#101010" mask="url(#path-27-outside-2_1_2)"/>
<mask id="path-29-outside-3_1_2" maskUnits="userSpaceOnUse" x="-14.098" y="84.0562" width="275.5" height="591.566" fill="black">
<rect fill="white" x="-14.098" y="84.0562" width="275.5" height="591.566"/>
<path fill-rule="evenodd" clip-rule="evenodd" d="M147.722 324.468C179.812 306.271 186.63 250.641 162.498 197.271C137.468 141.915 88.6202 109.953 53.394 125.881C18.1679 141.81 9.9024 199.597 34.9325 254.952C58.7784 307.688 104.241 339.192 138.949 328.283C173.743 426.309 190.065 582.998 193.238 627.205C193.529 631.248 196.635 634.458 200.663 634.909C205.924 635.498 210.384 631.089 209.815 625.826C200.601 540.604 183.876 413.041 147.722 324.468Z"/>
</mask>
<path fill-rule="evenodd" clip-rule="evenodd" d="M147.722 324.468C179.812 306.271 186.63 250.641 162.498 197.271C137.468 141.915 88.6202 109.953 53.394 125.881C18.1679 141.81 9.9024 199.597 34.9325 254.952C58.7784 307.688 104.241 339.192 138.949 328.283C173.743 426.309 190.065 582.998 193.238 627.205C193.529 631.248 196.635 634.458 200.663 634.909C205.924 635.498 210.384 631.089 209.815 625.826C200.601 540.604 183.876 413.041 147.722 324.468Z" fill="#F0F2FF"/>
<path d="M162.498 197.271L144.274 205.511L144.274 205.511L162.498 197.271ZM147.722 324.468L137.857 307.07L122.559 315.744L129.205 332.026L147.722 324.468ZM53.394 125.881L61.6342 144.105L53.394 125.881ZM34.9325 254.952L53.1561 246.712L34.9325 254.952ZM138.949 328.283L157.797 321.593L151.347 303.421L132.951 309.203L138.949 328.283ZM193.238 627.205L213.187 625.773L213.187 625.773L193.238 627.205ZM200.663 634.909L198.438 654.785L198.438 654.785L200.663 634.909ZM209.815 625.826L229.699 623.676L229.699 623.676L209.815 625.826ZM144.274 205.511C155.054 229.35 158.547 252.95 156.331 271.713C154.077 290.798 146.454 302.195 137.857 307.07L157.587 341.865C181.08 328.544 192.911 303.027 196.055 276.405C199.238 249.461 194.074 218.561 180.721 189.03L144.274 205.511ZM61.6342 144.105C70.8556 139.935 84.4807 140.89 100.819 151.58C116.922 162.117 133.084 180.764 144.274 205.511L180.721 189.03C166.881 158.422 146.105 133.41 122.72 118.109C99.5703 102.962 71.1586 95.8993 45.1539 107.658L61.6342 144.105ZM53.1561 246.712C41.9662 221.965 38.6409 197.513 41.3657 178.463C44.1303 159.135 52.4129 148.275 61.6342 144.105L45.1539 107.658C19.1491 119.417 5.68587 145.413 1.76869 172.8C-2.18831 200.464 2.86878 232.584 16.7089 263.192L53.1561 246.712ZM132.951 309.203C123.564 312.154 109.993 310.08 94.3514 299.11C78.98 288.33 63.805 270.262 53.1561 246.712L16.7089 263.192C29.906 292.378 49.3853 316.431 71.3836 331.859C93.1116 347.098 119.626 355.321 144.946 347.362L132.951 309.203ZM213.187 625.773C210.006 581.457 193.574 422.389 157.797 321.593L120.101 334.973C153.912 430.229 170.124 584.539 173.29 628.637L213.187 625.773ZM202.889 615.033C208.37 615.647 212.782 620.129 213.187 625.773L173.29 628.637C174.275 642.367 184.899 653.269 198.438 654.785L202.889 615.033ZM189.931 627.975C189.113 620.408 195.536 614.21 202.889 615.033L198.438 654.785C216.313 656.786 231.655 641.77 229.699 623.676L189.931 627.975ZM129.205 332.026C164.14 417.612 180.683 542.436 189.931 627.976L229.699 623.676C220.52 538.772 203.612 408.47 166.239 316.91L129.205 332.026Z" fill="#101010" mask="url(#path-29-outside-3_1_2)"/>
</g>
<defs>
<clipPath id="clip0_1_2">
<rect width="962" height="664" fill="white"/>
</clipPath>
</defs>
</svg>
